# xmcd CD database file
#
# Track frame offsets:
#	150
#	16125
#	33875
#	49850
#
# Disc length: 1104 seconds
#
# Revision: 0
# Processed by: cddbd v1.5.1PL0 Copyright (c) Steve Scherf et al.
# Submitted via: CDex 1.51
#
DISCID=24044e04
DTITLE=TAMAGO - 着メロは歌わない
DYEAR=2004
DGENRE=Seiyu
TTITLE0=着メロは歌わない
TTITLE1=待っているから
TTITLE2=着メロは歌わない (Off Vocal Version)
TTITLE3=待っているから (Off Vocal Version)
EXTD=YEAR: 2004
EXTT0=
EXTT1=
EXTT2=
EXTT3=
PLAYORDER=
